<?xml version="1.0" standalone="no"?>
<!DOCTYPE svg PUBLIC "-//W3C//DTD SVG 20010904//EN"
 "http://www.w3.org/TR/2001/REC-SVG-20010904/DTD/svg10.dtd">
<svg version="1.0" xmlns="http://www.w3.org/2000/svg"
 width="300.000000pt" height="300.000000pt" viewBox="0 0 300.000000 300.000000"
 preserveAspectRatio="xMidYMid meet">

<g transform="translate(0.000000,300.000000) scale(0.100000,-0.100000)"
fill="#000000" stroke="none">
<path d="M1300 2770 c-216 -39 -354 -94 -524 -207 -118 -79 -177 -130 -260
-226 -113 -131 -168 -220 -234 -379 -72 -174 -87 -255 -87 -483 1 -176 3 -211
24 -295 30 -118 59 -196 115 -308 62 -121 119 -200 226 -308 231 -234 557
-382 886 -400 356 -21 724 120 993 380 116 113 187 207 255 339 99 195 140
367 139 592 -1 163 -14 252 -60 395 -33 101 -125 287 -180 362 -118 158 -325
333 -503 423 -230 116 -540 161 -790 115z m382 -350 c177 -39 384 -134 592
-271 l128 -84 -74 -5 c-78 -5 -87 -13 -74 -66 10 -37 73 -102 107 -109 l29 -7
-32 -61 c-19 -37 -64 -93 -108 -137 -65 -65 -97 -87 -233 -159 -162 -86 -209
-124 -260 -212 -20 -34 -25 -37 -96 -48 -58 -9 -88 -19 -127 -46 -72 -50 -123
-127 -138 -207 l-7 -38 -52 0 c-30 0 -70 -9 -95 -20 -42 -19 -42 -19 -78 2
-54 32 -154 36 -227 8 -68 -26 -149 -101 -167 -155 -6 -19 -15 -35 -19 -35 -5
0 -30 23 -56 51 -129 137 -183 395 -134 630 17 81 72 193 132 268 l52 66 -28
30 c-99 106 -95 264 9 368 47 46 92 67 162 74 46 5 64 12 94 39 72 64 223 125
359 144 87 12 236 4 341 -20z m701 -906 c69 -35 175 -145 209 -215 91 -189 54
-392 -99 -546 -71 -72 -138 -109 -232 -129 -83 -17 -1076 -20 -1211 -3 -77 9
-200 51 -200 68 1 29 22 30 715 33 l700 3 67 33 c119 58 192 167 205 307 15
162 -100 336 -259 393 l-48 17 37 32 c21 18 44 32 51 33 7 0 36 -12 65 -26z
m-133 -175 c55 -25 115 -81 141 -132 64 -123 8 -286 -119 -349 -46 -23 -54
-23 -390 -26 l-343 -3 -14 35 c-45 107 23 246 136 276 46 13 90 6 136 -20 37
-22 43 -17 62 49 16 57 91 137 156 167 66 31 170 33 235 3z m-1135 -500 c5 -5
-20 -9 -70 -9 -74 0 -91 10 -40 23 27 7 98 -2 110 -14z m248 4 c-7 -2 -21 -2
-30 0 -10 3 -4 5 12 5 17 0 24 -2 18 -5z"/>
<path d="M1590 2208 c-63 -32 -90 -77 -90 -148 0 -47 5 -64 29 -97 71 -99 219
-89 274 17 24 47 19 139 -10 178 -48 65 -133 86 -203 50z m65 -40 c29 -13 43
-53 28 -77 -6 -9 -22 -20 -36 -25 -54 -19 -89 52 -47 94 24 24 22 23 55 8z"/>
<path d="M850 2111 c-56 -29 -75 -64 -75 -132 1 -53 4 -62 35 -94 33 -34 39
-37 90 -49 25 -5 25 -4 25 58 0 53 4 68 28 99 15 20 40 40 55 43 40 10 43 13
32 34 -13 24 -88 60 -126 60 -16 0 -45 -8 -64 -19z"/>
</g>
</svg>
