<svg height="600" version="1.1" width="800" xmlns="http://www.w3.org/2000/svg" preserveAspectRatio="xMidYMid meet" viewBox="0 0 600 442" xmlns:xlink="http://www.w3.org/1999/xlink"><desc>Created with Snap</desc><defs/><g id="root" contentwidth="237.6" contentheight="217.0166666666667">
          <rect class="background" height="2000%" width="2000%" y="-1000%" x="-1000%" style="" fill="#ffffff"/>
          <g class="content" id="content" transform="matrix(1,0,0,1,0.8,19.4917)">
            <g class="icon">
            <svg height="98" version="1.1" width="141" xmlns="http://www.w3.org/2000/svg" x="229" y="93" preserveAspectRatio="none" transform="matrix(1,0,0,1,0,0)"><desc>Created with Snap</desc><defs/><svg xmlns="http://www.w3.org/2000/svg" viewBox="229 93 141 98"><defs><linearGradient x1="100%" y1="57%" x2="6%" y2="55%" id="prefix-o_--linearGradient-1"><stop stop-color="#A0A0A0" offset="0%"/><stop stop-color="#E7E7E7" offset="23%"/><stop stop-color="#C036F9" offset="60%"/><stop stop-color="#4401B5" offset="100%"/></linearGradient><linearGradient x1="97%" y1="61%" x2="5%" y2="36%" id="prefix-o_--linearGradient-2"><stop stop-color="#BD38FB" offset="0%"/><stop stop-color="#4300B4" offset="48%"/><stop stop-color="#EEE" offset="82%"/><stop stop-color="#AFAFB3" offset="100%"/></linearGradient><linearGradient x1="65%" y1="16%" x2="33%" y2="85%" id="prefix-o_--linearGradient-3"><stop stop-color="#4300B4" offset="0%"/><stop stop-color="#BD38FB" offset="100%"/></linearGradient></defs><path d="m313.5 97.083 42.581 24.584a28 28 0 0 1 14 24.249v45a28 28 0 0 0-14-24.249L313.5 142.083a28 28 0 0 0-28 0l-42.581 24.584a28 28 0 0 0-14 24.249v-45a28 28 0 0 1 14-24.249L285.5 97.083a28 28 0 0 1 28 0Z" id="prefix-o_--形状结合备份-2" fill="url(#prefix-o_--linearGradient-1)"/></svg></svg><svg height="98" version="1.1" width="141" xmlns="http://www.w3.org/2000/svg" x="229" y="150" preserveAspectRatio="none" transform="matrix(1,0,0,1,0,0)"><desc>Created with Snap</desc><defs/><svg xmlns="http://www.w3.org/2000/svg" viewBox="229 150 141 98"><defs><linearGradient x1="100%" y1="57%" x2="6%" y2="55%" id="prefix-rjA-linearGradient-1"><stop stop-color="#A0A0A0" offset="0%"/><stop stop-color="#E7E7E7" offset="23%"/><stop stop-color="#C036F9" offset="60%"/><stop stop-color="#4401B5" offset="100%"/></linearGradient><linearGradient x1="97%" y1="61%" x2="5%" y2="36%" id="prefix-rjA-linearGradient-2"><stop stop-color="#BD38FB" offset="0%"/><stop stop-color="#4300B4" offset="48%"/><stop stop-color="#EEE" offset="82%"/><stop stop-color="#AFAFB3" offset="100%"/></linearGradient><linearGradient x1="65%" y1="16%" x2="33%" y2="85%" id="prefix-rjA-linearGradient-3"><stop stop-color="#4300B4" offset="0%"/><stop stop-color="#BD38FB" offset="100%"/></linearGradient></defs><path d="M228.923 190.455a28.006 28.006 0 0 1 8.877-19.997 28 28 0 0 0 5.119 3.79l42.581 24.585.42.238a28 28 0 0 0 27.58-.238l42.581-24.584.398-.234A28 28 0 0 0 370.08 150v45a28 28 0 0 1-14 24.249l-42.58 24.584a28 28 0 0 1-28 0l-42.581-24.584a28 28 0 0 1-14-24.249v-4.084Z" id="prefix-rjA-形状结合备份-3" fill="url(#prefix-rjA-linearGradient-2)"/></svg></svg><svg height="154" version="1.1" width="141" xmlns="http://www.w3.org/2000/svg" x="229" y="93" preserveAspectRatio="none" transform="matrix(1,0,0,1,0,0)"><desc>Created with Snap</desc><defs/><svg xmlns="http://www.w3.org/2000/svg" viewBox="229 93 141 154"><defs><linearGradient x1="100%" y1="57%" x2="6%" y2="55%" id="prefix-u5F-linearGradient-1"><stop stop-color="#A0A0A0" offset="0%"/><stop stop-color="#E7E7E7" offset="23%"/><stop stop-color="#C036F9" offset="60%"/><stop stop-color="#4401B5" offset="100%"/></linearGradient><linearGradient x1="97%" y1="61%" x2="5%" y2="36%" id="prefix-u5F-linearGradient-2"><stop stop-color="#BD38FB" offset="0%"/><stop stop-color="#4300B4" offset="48%"/><stop stop-color="#EEE" offset="82%"/><stop stop-color="#AFAFB3" offset="100%"/></linearGradient><linearGradient x1="65%" y1="16%" x2="33%" y2="85%" id="prefix-u5F-linearGradient-3"><stop stop-color="#4300B4" offset="0%"/><stop stop-color="#BD38FB" offset="100%"/></linearGradient></defs><path d="m313.5 97.083 42.581 24.584a28.002 28.002 0 0 1 13.648 19.82c-1.102.458-2.18.99-3.229 1.596l-42.581 24.584a28 28 0 0 0-14 24.249v49.168c0 1.498.12 2.978.352 4.43a28 28 0 0 1-24.771-1.597l-42.581-24.584a28.001 28.001 0 0 1-13.831-21.176 27.75 27.75 0 0 0 2.412-1.24l42.581-24.584a28 28 0 0 0 14-24.249V98.916c0-1.034-.057-2.059-.169-3.072a27.994 27.994 0 0 1 25.588 1.239Z" id="prefix-u5F-形状结合备份-4" fill="url(#prefix-u5F-linearGradient-3)"/></svg></svg></g>
          </g>
          
          <defs id="defs">
            <mask xmlns="http://www.w3.org/2000/svg" id="mask">
                <rect id="showAll" fill="white" x="229" y="93" width="141" height="155"/>
                <rect id="hideNameBg" fill="black" x="0" y="0" width="0" height="0" stroke-width="2" stroke="black"/>
                <rect id="hideSloganBg" fill="black" x="0" y="0" width="0" height="0" stroke-width="2" stroke="black"/>
            </mask>
          </defs>
          
        </g>
        </svg>